<svg width="16" height="16" viewBox="0 0 16 16" fill="none" xmlns="http://www.w3.org/2000/svg">
<g clip-path="url(#clip0_1013_761)">
<path d="M7.33332 3.99992C8.0697 3.99992 8.66666 3.40296 8.66666 2.66659C8.66666 1.93021 8.0697 1.33325 7.33332 1.33325C6.59694 1.33325 5.99999 1.93021 5.99999 2.66659C5.99999 3.40296 6.59694 3.99992 7.33332 3.99992Z" stroke="white" stroke-width="1.5" stroke-linecap="round" stroke-linejoin="round"/>
<path d="M12 6.66658C12.7364 6.66658 13.3333 6.06963 13.3333 5.33325C13.3333 4.59687 12.7364 3.99992 12 3.99992C11.2636 3.99992 10.6667 4.59687 10.6667 5.33325C10.6667 6.06963 11.2636 6.66658 12 6.66658Z" stroke="white" stroke-width="1.5" stroke-linecap="round" stroke-linejoin="round"/>
<path d="M13.3333 11.9999C14.0697 11.9999 14.6667 11.403 14.6667 10.6666C14.6667 9.93021 14.0697 9.33325 13.3333 9.33325C12.5969 9.33325 12 9.93021 12 10.6666C12 11.403 12.5969 11.9999 13.3333 11.9999Z" stroke="white" stroke-width="1.5" stroke-linecap="round" stroke-linejoin="round"/>
<path d="M6.00015 6.66658C6.43789 6.66658 6.87134 6.7528 7.27576 6.92032C7.68018 7.08784 8.04764 7.33337 8.35717 7.6429C8.6667 7.95242 8.91223 8.31989 9.07975 8.72431C9.24726 9.12873 9.33348 9.56218 9.33348 9.99992V12.3333C9.3333 12.8909 9.13341 13.43 8.77003 13.853C8.40664 14.276 7.90379 14.5548 7.35254 14.6391C6.8013 14.7233 6.23812 14.6073 5.76501 14.3121C5.2919 14.0169 4.94016 13.5621 4.77348 13.0299C4.48904 12.1121 3.88904 11.511 2.97348 11.2266C2.4416 11.06 1.98693 10.7085 1.69172 10.2358C1.39652 9.76301 1.28029 9.20019 1.36407 8.64917C1.44785 8.09815 1.72611 7.59531 2.14849 7.23166C2.57086 6.86801 3.10946 6.66756 3.66681 6.66658H6.00015Z" stroke="white" stroke-width="1.5" stroke-linecap="round" stroke-linejoin="round"/>
</g>
<defs>
<clipPath id="clip0_1013_761">
<rect width="16" height="16" fill="white"/>
</clipPath>
</defs>
</svg>
