<svg width="721" height="655" viewBox="0 0 721 655" fill="none" xmlns="http://www.w3.org/2000/svg">
<path opacity="0.05" d="M271.88 654.976C237.383 654.391 203.764 649.418 171.021 640.058C138.863 631.282 109.921 617.534 84.1951 598.813C58.4688 579.506 38.0047 555.227 22.8028 525.975C7.60094 496.724 0 461.914 0 421.546C0 394.049 5.26219 368.308 15.7866 344.321C26.8957 319.75 42.9746 299.273 64.0233 282.892C85.6568 265.926 112.552 254.811 144.71 249.545V246.912C125.416 232.287 111.383 216.491 102.613 199.524C93.8424 182.558 89.4573 164.13 89.4573 144.238C89.4573 106.211 103.197 75.4964 130.678 52.0949C158.743 28.1084 197.625 16.1151 247.323 16.1151C268.956 16.1151 289.128 19.3328 307.838 25.7682C326.548 32.2036 341.75 42.1493 353.444 55.6051C365.722 69.061 371.862 86.3196 371.862 107.381C371.862 124.932 366.599 140.728 356.075 154.769C346.135 168.81 331.518 175.83 312.223 175.83C299.36 175.83 289.421 172.613 282.404 166.177C275.388 159.742 271.88 155.062 271.88 152.136C271.88 150.966 274.219 148.626 278.896 145.116C284.158 141.021 289.128 135.755 293.806 129.32C298.483 122.299 300.822 113.816 300.822 103.871C300.822 86.3196 294.683 72.5713 282.404 62.6256C270.126 52.68 255.216 47.7071 237.676 47.7071C207.857 47.7071 185.638 56.7752 171.021 74.9114C156.404 92.4626 149.095 112.939 149.095 136.34C149.095 179.048 166.928 210.055 202.594 229.361H231.536C238.553 229.361 244.107 229.946 248.2 231.116C252.878 232.287 255.509 238.722 256.093 250.423C256.093 255.688 254.632 260.661 251.708 265.341C249.369 269.436 245.277 271.484 239.43 271.484H208.734C181.838 273.824 159.912 282.015 142.956 296.056C126 309.512 113.429 326.185 105.244 346.076C97.0582 365.968 92.9654 386.444 92.9654 407.505C92.9654 445.533 101.736 478.587 119.276 506.669C136.817 534.751 161.082 556.397 192.07 571.608C223.643 586.234 259.309 593.547 299.068 593.547C341.75 593.547 380.632 584.772 415.713 567.221C451.379 549.67 479.737 525.39 500.785 494.383C522.419 462.791 533.235 427.104 533.235 387.322C533.235 366.26 529.143 346.076 520.957 326.77C513.356 307.464 501.662 291.668 485.876 279.382C470.089 267.096 450.794 260.953 427.992 260.953C418.637 260.953 407.82 263.001 395.541 267.096C383.848 271.192 373.908 277.627 365.722 286.403C357.537 294.593 353.736 305.416 354.321 318.872C354.906 326.478 357.537 333.791 362.214 340.811C366.892 347.246 374.2 351.342 384.14 353.097C394.08 354.267 402.85 353.097 410.451 349.587C418.052 346.076 423.899 342.274 427.992 338.178C432.669 334.083 435.593 332.035 436.762 332.035C439.685 332.621 443.486 337.008 448.163 345.199C453.426 353.389 455.18 363.628 453.426 375.913C451.087 391.709 444.071 403.995 432.377 412.771C421.268 420.961 407.82 425.056 392.033 425.056C369.815 425.056 351.982 416.281 338.534 398.73C325.087 380.594 318.363 357.485 318.363 329.403C318.363 298.981 323.917 274.117 335.026 254.811C346.72 235.504 361.922 220.293 380.632 209.178C399.927 198.062 421.268 189.871 444.655 184.606C468.043 178.756 491.723 174.368 515.695 171.443C540.252 168.517 563.639 165.885 585.857 163.545C608.076 160.619 627.078 156.524 642.865 151.259C655.728 146.579 666.544 139.851 675.315 131.075C684.085 122.299 688.178 112.354 687.593 101.238C687.008 94.2177 684.377 88.0748 679.7 82.8094C675.022 77.5441 666.837 74.0338 655.143 72.2787C645.203 71.1087 636.433 72.2787 628.832 75.7889C621.231 79.2992 615.092 83.102 610.414 87.1972C606.321 91.2925 603.69 93.3401 602.521 93.3401C600.182 92.7551 596.382 88.3673 591.12 80.1767C585.857 71.9862 584.103 61.7481 585.857 49.4623C588.196 33.6663 594.628 21.9655 605.152 14.36C615.677 6.16948 627.663 1.48918 641.11 0.319121C655.143 -0.850974 668.298 1.19665 680.577 6.46199C696.363 14.0675 707.18 25.7682 713.027 41.5643C718.874 56.7752 721.505 71.9862 720.92 87.1972C720.336 119.374 709.519 146.871 688.47 169.688C668.006 192.504 640.818 210.055 606.906 222.341C573.579 234.042 537.036 239.892 497.277 239.892C521.249 260.368 539.667 282.892 552.53 307.464C565.978 332.035 572.702 358.947 572.702 388.199C572.702 443.778 559.254 491.751 532.358 532.118C505.463 571.901 469.212 602.615 423.606 624.262C378.585 645.323 328.01 655.561 271.88 654.976Z" fill="#CC9933"/>
</svg>
