<svg preserveAspectRatio="none" width="100%" height="100%" overflow="visible" style="display: block;" viewBox="0 0 30.7573 31.9999" fill="none" xmlns="http://www.w3.org/2000/svg">
<path id="Vector" d="M30.7573 18.6366C30.7609 18.0282 30.4115 17.4732 29.8616 17.2136L27.3408 16.0016L29.86 14.7896C30.4053 14.5253 30.7517 13.9726 30.7517 13.3666C30.7517 12.7606 30.4053 12.2079 29.86 11.9436L27.3408 10.7316L29.86 9.5196C30.4076 9.25636 30.756 8.70235 30.756 8.09455C30.756 7.48675 30.4076 6.93273 29.86 6.66949L16.5189 0.261119C15.7981 -0.0870395 14.9574 -0.0870395 14.2367 0.261119L0.896256 6.67361C0.348415 6.93685 0 7.49087 0 8.09867C0 8.70646 0.348415 9.26048 0.896256 9.52372L3.41519 10.7316L0.896256 11.9436C0.350731 12.2079 0.00437448 12.7606 0.00437448 13.3666C0.00437448 13.9726 0.350731 14.5253 0.896256 14.7896L3.41519 16.0016L0.896256 17.2136C0.350731 17.4778 0.00437448 18.0306 0.00437448 18.6366C0.00437448 19.2426 0.350731 19.7953 0.896256 20.0596L3.41519 21.2715L0.896256 22.4835C0.350731 22.7478 0.00437448 23.3005 0.00437448 23.9065C0.00437448 24.5125 0.350731 25.0653 0.896256 25.3295L14.2392 31.7446C14.9608 32.085 15.7968 32.085 16.5183 31.7446L29.86 25.3295C30.4053 25.0653 30.7517 24.5125 30.7517 23.9065C30.7517 23.3005 30.4053 22.7478 29.86 22.4835L27.3408 21.2715L29.86 20.0596C30.4102 19.7999 30.7604 19.2451 30.7573 18.6366ZM1.05374 8.09661C1.05116 7.89358 1.16825 7.70779 1.35249 7.62236L14.6929 1.21141C15.1257 1.00169 15.6303 1.00169 16.0631 1.21141L29.403 7.62236C29.585 7.71036 29.7002 7.89461 29.7002 8.09661C29.7002 8.29861 29.585 8.48285 29.403 8.57085L16.0631 14.9818C15.6303 15.1913 15.1257 15.1913 14.6929 14.9818L1.35249 8.57085C1.16825 8.48542 1.05116 8.29989 1.05374 8.09661ZM1.05374 13.3666C1.05168 13.1638 1.16825 12.9783 1.35198 12.8923L4.63259 11.3155L14.2382 15.9311C14.959 16.2795 15.7996 16.2795 16.5207 15.9311L26.1245 11.3165L29.4061 12.8923C29.5865 12.9809 29.7007 13.1643 29.7007 13.3653C29.7007 13.5663 29.5865 13.7497 29.4061 13.8383L16.0631 20.2528C15.6293 20.4576 15.1267 20.4576 14.6929 20.2528L1.3494 13.8408C1.16619 13.7544 1.05014 13.5691 1.05271 13.3666H1.05374ZM29.4061 23.4323C29.5898 23.5188 29.7069 23.7035 29.7069 23.9065C29.7069 24.1096 29.5898 24.2943 29.4061 24.3808L16.0631 30.7928C15.6293 30.9976 15.1267 30.9976 14.6929 30.7928L1.3494 24.3808C1.16747 24.2928 1.05194 24.1085 1.05194 23.9065C1.05194 23.7045 1.16747 23.5203 1.3494 23.4323L4.63053 21.8554L14.2377 26.4736C14.9592 26.814 15.7953 26.814 16.5168 26.4736L26.124 21.8564L29.4061 23.4323ZM29.4061 19.1108L16.0631 25.5228C15.6293 25.7276 15.1267 25.7276 14.6929 25.5228L1.3494 19.1108C1.16747 19.0228 1.05194 18.8386 1.05194 18.6366C1.05194 18.4346 1.16747 18.2503 1.3494 18.1623L4.63053 16.5854L14.2377 21.2036C14.9592 21.5441 15.7953 21.5441 16.5168 21.2036L26.124 16.5865L29.4061 18.1623C29.588 18.2503 29.7036 18.4346 29.7036 18.6366C29.7036 18.8386 29.588 19.0228 29.4061 19.1108Z" fill="var(--fill-0, #931115)"/>
</svg>
