<svg preserveAspectRatio="none" width="100%" height="100%" overflow="visible" style="display: block;" viewBox="0 0 29.6997 20.7428" fill="none" xmlns="http://www.w3.org/2000/svg">
<g id="Group">
<path id="Vector" d="M13.9382 9.99726C14.5148 10.2713 15.1846 10.2713 15.7616 9.99726L20.1144 7.90497L25.5952 5.26998L29.105 3.58348C29.4686 3.40747 29.6997 3.03899 29.6997 2.63499C29.6997 2.23099 29.4686 1.8625 29.105 1.6865L25.5962 0L15.7626 4.72497C15.1857 5.0021 14.5141 5.0021 13.9369 4.72497L4.10327 0L0.594416 1.6865C0.230819 1.8625 5.65366e-08 2.23099 5.65366e-08 2.63499C5.65366e-08 3.03899 0.230819 3.40747 0.594416 3.58348L4.1043 5.26998L9.58503 7.90497L13.9382 9.99726Z" fill="var(--fill-0, #F4E2E3)"/>
<path id="Vector_2" d="M15.7616 15.2672L25.5952 10.54L29.105 8.85346C29.4686 8.67745 29.6997 8.30897 29.6997 7.90497C29.6997 7.50097 29.4686 7.13249 29.105 6.95648L25.5952 5.26998L20.1144 7.90497L15.7616 9.99726C15.1846 10.2713 14.5148 10.2713 13.9382 9.99726L9.58503 7.90497L4.1043 5.26998L0.594416 6.95648C0.230819 7.13249 0 7.50097 0 7.90497C0 8.30897 0.230819 8.67745 0.594416 8.85346L4.1043 10.54L13.9382 15.2672C14.5148 15.5413 15.1846 15.5413 15.7616 15.2672Z" fill="var(--fill-0, #F4E2E3)"/>
<path id="Vector_3" d="M0.594416 14.1234L13.9382 20.5372C14.5148 20.8113 15.1846 20.8113 15.7616 20.5372L29.105 14.1234C29.4686 13.9474 29.6997 13.5789 29.6997 13.1749C29.6997 12.771 29.4686 12.4025 29.105 12.2265L25.5952 10.54L15.7616 15.2672C15.1846 15.5413 14.5148 15.5413 13.9382 15.2672L4.1043 10.54L0.594416 12.2265C0.230819 12.4025 0 12.771 0 13.1749C0 13.5789 0.230819 13.9474 0.594416 14.1234Z" fill="var(--fill-0, #F4E2E3)"/>
</g>
</svg>
