<svg preserveAspectRatio="none" width="100%" height="100%" overflow="visible" style="display: block;" viewBox="0 0 30 30" fill="none" xmlns="http://www.w3.org/2000/svg">
<g id="Compass">
<path id="Vector" d="M15 0.5C12.1322 0.5 9.32875 1.35041 6.94424 2.94369C4.55973 4.53697 2.70122 6.80156 1.60375 9.45109C0.506283 12.1006 0.219135 15.0161 0.77862 17.8288C1.33811 20.6415 2.7191 23.2252 4.74696 25.253C6.77482 27.2809 9.35847 28.6619 12.1712 29.2214C14.9839 29.7809 17.8994 29.4937 20.5489 28.3963C23.1984 27.2988 25.463 25.4403 27.0563 23.0558C28.6496 20.6713 29.5 17.8678 29.5 15C29.5 11.1544 27.9723 7.46623 25.2531 4.74695C22.5338 2.02767 18.8456 0.5 15 0.5ZM15 26.5C12.7255 26.5 10.5021 25.8255 8.61095 24.5619C6.71978 23.2983 5.2458 21.5022 4.37539 19.4009C3.50498 17.2995 3.27725 14.9872 3.72098 12.7565C4.16471 10.5257 5.25997 8.47658 6.86828 6.86827C8.47658 5.25997 10.5257 4.1647 12.7565 3.72097C14.9872 3.27724 17.2995 3.50498 19.4009 4.37539C21.5022 5.24579 23.2983 6.71978 24.5619 8.61094C25.8255 10.5021 26.5 12.7255 26.5 15C26.4966 18.0489 25.2839 20.972 23.1279 23.1279C20.972 25.2839 18.0489 26.4966 15 26.5Z" fill="var(--fill-0, #F4E2E3)"/>
<path id="Vector_2" d="M8.75751 21.2425L17 17L21.2425 8.7575L13 13L8.75751 21.2425ZM15 14C15.1978 14 15.3911 14.0586 15.5556 14.1685C15.72 14.2784 15.8482 14.4346 15.9239 14.6173C15.9996 14.8 16.0194 15.0011 15.9808 15.1951C15.9422 15.3891 15.847 15.5673 15.7071 15.7071C15.5673 15.847 15.3891 15.9422 15.1951 15.9808C15.0011 16.0194 14.8 15.9996 14.6173 15.9239C14.4346 15.8482 14.2784 15.72 14.1685 15.5556C14.0587 15.3911 14 15.1978 14 15C14 14.7348 14.1054 14.4804 14.2929 14.2929C14.4804 14.1054 14.7348 14 15 14Z" fill="var(--fill-0, #F4E2E3)"/>
<g id="Group">
<path id="Vector_3" d="M15 0C12.0333 0 9.13319 0.879735 6.66645 2.52796C4.19972 4.17618 2.27713 6.51886 1.14181 9.25975C0.00649941 12.0006 -0.290551 15.0166 0.288228 17.9264C0.867006 20.8361 2.29562 23.5088 4.3934 25.6066C6.49119 27.7044 9.16394 29.133 12.0737 29.7118C14.9834 30.2906 17.9994 29.9935 20.7403 28.8582C23.4812 27.7229 25.8238 25.8003 27.4721 23.3336C29.1203 20.8668 30 17.9667 30 15C29.9955 11.0231 28.4137 7.21044 25.6016 4.39837C22.7896 1.5863 18.9769 0.00449947 15 0ZM15 29C12.2311 29 9.52431 28.1789 7.22202 26.6406C4.91973 25.1022 3.12532 22.9157 2.06569 20.3576C1.00607 17.7994 0.72882 14.9845 1.26901 12.2687C1.80921 9.553 3.14258 7.05844 5.10051 5.1005C7.05845 3.14257 9.55301 1.8092 12.2687 1.26901C14.9845 0.728813 17.7994 1.00606 20.3576 2.06569C22.9157 3.12531 25.1022 4.91973 26.6406 7.22202C28.1789 9.5243 29 12.2311 29 15C28.9958 18.7117 27.5194 22.2702 24.8948 24.8948C22.2702 27.5194 18.7117 28.9958 15 29Z" fill="var(--fill-0, #931115)"/>
<path id="Vector_4" d="M15 3C12.6266 3 10.3066 3.70379 8.33316 5.02236C6.35977 6.34094 4.8217 8.21509 3.91345 10.4078C3.0052 12.6005 2.76756 15.0133 3.23058 17.3411C3.69361 19.6689 4.8365 21.8071 6.51473 23.4853C8.19296 25.1635 10.3312 26.3064 12.6589 26.7694C14.9867 27.2324 17.3995 26.9948 19.5922 26.0866C21.7849 25.1783 23.6591 23.6402 24.9776 21.6668C26.2962 19.6935 27 17.3734 27 15C26.9963 11.8185 25.7308 8.76844 23.4812 6.51881C21.2316 4.26918 18.1815 3.00371 15 3ZM15 26C12.8244 26 10.6977 25.3549 8.88873 24.1462C7.07979 22.9375 5.6699 21.2195 4.83733 19.2095C4.00477 17.1995 3.78693 14.9878 4.21137 12.854C4.63581 10.7202 5.68345 8.7602 7.22183 7.22183C8.76021 5.68345 10.7202 4.6358 12.854 4.21136C14.9878 3.78692 17.1995 4.00476 19.2095 4.83733C21.2195 5.66989 22.9375 7.07979 24.1462 8.88873C25.3549 10.6977 26 12.8244 26 15C25.9967 17.9164 24.8367 20.7123 22.7745 22.7745C20.7123 24.8367 17.9164 25.9967 15 26Z" fill="var(--fill-0, #931115)"/>
<path id="Vector_5" d="M15 8C15.1326 8 15.2598 7.94732 15.3536 7.85355C15.4473 7.75979 15.5 7.63261 15.5 7.5V5.5C15.5 5.36739 15.4473 5.24021 15.3536 5.14645C15.2598 5.05268 15.1326 5 15 5C14.8674 5 14.7402 5.05268 14.6465 5.14645C14.5527 5.24021 14.5 5.36739 14.5 5.5V7.5C14.5 7.63261 14.5527 7.75979 14.6465 7.85355C14.7402 7.94732 14.8674 8 15 8Z" fill="var(--fill-0, #931115)"/>
<path id="Vector_6" d="M7.50001 14.5H5.50001C5.3674 14.5 5.24022 14.5527 5.14645 14.6464C5.05269 14.7402 5.00001 14.8674 5.00001 15C5.00001 15.1326 5.05269 15.2598 5.14645 15.3536C5.24022 15.4473 5.3674 15.5 5.50001 15.5H7.50001C7.63261 15.5 7.75979 15.4473 7.85356 15.3536C7.94733 15.2598 8.00001 15.1326 8.00001 15C8.00001 14.8674 7.94733 14.7402 7.85356 14.6464C7.75979 14.5527 7.63261 14.5 7.50001 14.5Z" fill="var(--fill-0, #931115)"/>
<path id="Vector_7" d="M15 22C14.8674 22 14.7402 22.0527 14.6465 22.1464C14.5527 22.2402 14.5 22.3674 14.5 22.5V24.5C14.5 24.6326 14.5527 24.7598 14.6465 24.8536C14.7402 24.9473 14.8674 25 15 25C15.1326 25 15.2598 24.9473 15.3536 24.8536C15.4473 24.7598 15.5 24.6326 15.5 24.5V22.5C15.5 22.3674 15.4473 22.2402 15.3536 22.1464C15.2598 22.0527 15.1326 22 15 22Z" fill="var(--fill-0, #931115)"/>
<path id="Vector_8" d="M24.5 14.5H22.5C22.3674 14.5 22.2402 14.5527 22.1465 14.6464C22.0527 14.7402 22 14.8674 22 15C22 15.1326 22.0527 15.2598 22.1465 15.3536C22.2402 15.4473 22.3674 15.5 22.5 15.5H24.5C24.6326 15.5 24.7598 15.4473 24.8536 15.3536C24.9473 15.2598 25 15.1326 25 15C25 14.8674 24.9473 14.7402 24.8536 14.6464C24.7598 14.5527 24.6326 14.5 24.5 14.5Z" fill="var(--fill-0, #931115)"/>
<path id="Vector_9" d="M21.014 8.3125L12.771 12.5555C12.6785 12.6032 12.6032 12.6785 12.5555 12.771L8.31251 21.014C8.26396 21.1082 8.2466 21.2154 8.26293 21.3201C8.27927 21.4248 8.32846 21.5217 8.4034 21.5966C8.47835 21.6715 8.57516 21.7207 8.67988 21.7371C8.7846 21.7534 8.8918 21.7361 8.98601 21.6875L17.229 17.4445C17.3215 17.3968 17.3968 17.3215 17.4445 17.229L21.6875 8.986C21.7361 8.89179 21.7534 8.78459 21.7371 8.67987C21.7207 8.57516 21.6716 8.47834 21.5966 8.4034C21.5217 8.32846 21.4248 8.27927 21.3201 8.26293C21.2154 8.24659 21.1082 8.26395 21.014 8.3125ZM16.6285 16.6285L9.91651 20.0835L13.3715 13.3715L20.0835 9.9165L16.6285 16.6285Z" fill="var(--fill-0, #931115)"/>
<path id="Vector_10" d="M15 16.5C15.2967 16.5 15.5867 16.412 15.8334 16.2472C16.08 16.0824 16.2723 15.8481 16.3858 15.574C16.4994 15.2999 16.5291 14.9983 16.4712 14.7074C16.4133 14.4164 16.2704 14.1491 16.0607 13.9393C15.8509 13.7296 15.5836 13.5867 15.2926 13.5288C15.0017 13.4709 14.7001 13.5006 14.426 13.6142C14.1519 13.7277 13.9176 13.92 13.7528 14.1666C13.588 14.4133 13.5 14.7033 13.5 15C13.5 15.3978 13.658 15.7794 13.9393 16.0607C14.2207 16.342 14.6022 16.5 15 16.5ZM15 14.5C15.0989 14.5 15.1956 14.5293 15.2778 14.5843C15.36 14.6392 15.4241 14.7173 15.4619 14.8087C15.4998 14.9 15.5097 15.0006 15.4904 15.0975C15.4711 15.1945 15.4235 15.2836 15.3536 15.3536C15.2836 15.4235 15.1945 15.4711 15.0976 15.4904C15.0006 15.5097 14.9 15.4998 14.8087 15.4619C14.7173 15.4241 14.6392 15.36 14.5843 15.2778C14.5293 15.1956 14.5 15.0989 14.5 15C14.5 14.8674 14.5527 14.7402 14.6465 14.6464C14.7402 14.5527 14.8674 14.5 15 14.5Z" fill="var(--fill-0, #931115)"/>
</g>
</g>
</svg>
