<svg preserveAspectRatio="none" width="100%" height="100%" overflow="visible" style="display: block;" viewBox="0 0 30 30" fill="none" xmlns="http://www.w3.org/2000/svg">
<g id="Setting">
<path id="Vector" d="M28.5 12H25.7755C25.5755 12.0008 25.3801 11.9404 25.2155 11.8267C25.0509 11.7131 24.9251 11.5518 24.855 11.3645C24.761 11.1082 24.657 10.8568 24.543 10.6105C24.4596 10.4268 24.4343 10.2219 24.4706 10.0235C24.5069 9.82498 24.603 9.64233 24.746 9.5L26.665 7.575C26.7588 7.4826 26.8333 7.37247 26.8842 7.25101C26.935 7.12954 26.9612 6.99918 26.9612 6.8675C26.9612 6.73582 26.935 6.60546 26.8842 6.48399C26.8333 6.36253 26.7588 6.2524 26.665 6.16L23.84 3.335C23.7476 3.24118 23.6375 3.16667 23.516 3.11582C23.3945 3.06496 23.2642 3.03877 23.1325 3.03877C23.0008 3.03877 22.8705 3.06496 22.749 3.11582C22.6275 3.16667 22.5174 3.24118 22.425 3.335L20.5 5.254C20.3575 5.39744 20.1745 5.49379 19.9756 5.53009C19.7767 5.56638 19.5715 5.54087 19.3875 5.457C19.1435 5.34433 18.8945 5.24117 18.6405 5.1475C18.4515 5.07619 18.2889 4.94878 18.1744 4.78236C18.0599 4.61595 17.999 4.41849 18 4.2165V1.5C17.9992 1.23503 17.8936 0.981133 17.7062 0.793767C17.5189 0.606402 17.265 0.500791 17 0.5H13C12.7348 0.5 12.4804 0.605357 12.2929 0.792893C12.1054 0.98043 12 1.23478 12 1.5V4.224C12.0009 4.42459 11.9403 4.62062 11.8263 4.78567C11.7123 4.95072 11.5504 5.07683 11.3625 5.147C11.107 5.241 10.8565 5.347 10.6125 5.4585C10.4284 5.54219 10.2231 5.56745 10.0241 5.53089C9.82524 5.49432 9.64231 5.39769 9.5 5.254L7.575 3.335C7.4826 3.24118 7.37247 3.16667 7.25101 3.11582C7.12954 3.06496 6.99918 3.03877 6.8675 3.03877C6.73582 3.03877 6.60546 3.06496 6.48399 3.11582C6.36253 3.16667 6.2524 3.24118 6.16 3.335L3.335 6.16C3.24118 6.2524 3.16667 6.36253 3.11582 6.48399C3.06496 6.60546 3.03877 6.73582 3.03877 6.8675C3.03877 6.99918 3.06496 7.12954 3.11582 7.25101C3.16667 7.37247 3.24118 7.4826 3.335 7.575L5.254 9.5C5.39744 9.64249 5.49379 9.82549 5.53009 10.0244C5.56638 10.2233 5.54087 10.4285 5.457 10.6125C5.34433 10.8565 5.24117 11.1055 5.1475 11.3595C5.07619 11.5485 4.94878 11.7111 4.78236 11.8256C4.61595 11.9401 4.41849 12.001 4.2165 12H1.5C1.23503 12.0008 0.981133 12.1064 0.793767 12.2938C0.606402 12.4811 0.500791 12.735 0.5 13V17C0.5 17.2652 0.605357 17.5196 0.792893 17.7071C0.98043 17.8946 1.23478 18 1.5 18H4.219C4.42111 17.9992 4.61861 18.0603 4.7849 18.1752C4.95118 18.2901 5.07826 18.4532 5.149 18.6425C5.24233 18.8962 5.3455 19.1452 5.4585 19.3895C5.54174 19.5734 5.56676 19.7783 5.5302 19.9768C5.49365 20.1753 5.39727 20.3578 5.254 20.5L3.335 22.425C3.24118 22.5174 3.16667 22.6275 3.11582 22.749C3.06496 22.8705 3.03877 23.0008 3.03877 23.1325C3.03877 23.2642 3.06496 23.3945 3.11582 23.516C3.16667 23.6375 3.24118 23.7476 3.335 23.84L6.16 26.665C6.2524 26.7588 6.36253 26.8333 6.48399 26.8842C6.60546 26.935 6.73582 26.9612 6.8675 26.9612C6.99918 26.9612 7.12954 26.935 7.25101 26.8842C7.37247 26.8333 7.4826 26.7588 7.575 26.665L9.5 24.746C9.64249 24.6026 9.82549 24.5062 10.0244 24.4699C10.2233 24.4336 10.4285 24.4591 10.6125 24.543C10.8565 24.6557 11.1055 24.7588 11.3595 24.8525C11.5485 24.9238 11.7111 25.0512 11.8256 25.2176C11.9401 25.3841 12.001 25.5815 12 25.7835V28.5C12.0008 28.765 12.1064 29.0189 12.2938 29.2062C12.4811 29.3936 12.735 29.4992 13 29.5H17C17.2652 29.5 17.5196 29.3946 17.7071 29.2071C17.8946 29.0196 18 28.7652 18 28.5V25.78C17.9991 25.5786 18.0599 25.3818 18.1744 25.2162C18.2888 25.0505 18.4513 24.9239 18.64 24.8535C18.8947 24.7595 19.1447 24.656 19.39 24.543C19.5737 24.4597 19.7784 24.4345 19.9768 24.4708C20.1752 24.507 20.3577 24.6031 20.5 24.746L22.425 26.665C22.5174 26.7588 22.6275 26.8333 22.749 26.8842C22.8705 26.935 23.0008 26.9612 23.1325 26.9612C23.2642 26.9612 23.3945 26.935 23.516 26.8842C23.6375 26.8333 23.7476 26.7588 23.84 26.665L26.665 23.84C26.7588 23.7476 26.8333 23.6375 26.8842 23.516C26.935 23.3945 26.9612 23.2642 26.9612 23.1325C26.9612 23.0008 26.935 22.8705 26.8842 22.749C26.8333 22.6275 26.7588 22.5174 26.665 22.425L24.746 20.5C24.6026 20.3575 24.5062 20.1745 24.4699 19.9756C24.4336 19.7767 24.4591 19.5715 24.543 19.3875C24.6557 19.1435 24.7588 18.8945 24.8525 18.6405C24.9238 18.4515 25.0512 18.2889 25.2176 18.1744C25.3841 18.0599 25.5815 17.999 25.7835 18H28.5C28.765 17.9992 29.0189 17.8936 29.2062 17.7062C29.3936 17.5189 29.4992 17.265 29.5 17V13C29.5 12.7348 29.3946 12.4804 29.2071 12.2929C29.0196 12.1054 28.7652 12 28.5 12ZM15 21.5C13.7144 21.5 12.4577 21.1188 11.3888 20.4046C10.3199 19.6903 9.48675 18.6752 8.99478 17.4874C8.50281 16.2997 8.37409 14.9928 8.6249 13.7319C8.8757 12.471 9.49476 11.3128 10.4038 10.4038C11.3128 9.49476 12.471 8.8757 13.7319 8.6249C14.9928 8.37409 16.2997 8.50281 17.4874 8.99478C18.6752 9.48675 19.6903 10.3199 20.4046 11.3888C21.1188 12.4577 21.5 13.7144 21.5 15C21.498 16.7233 20.8126 18.3754 19.594 19.594C18.3754 20.8126 16.7233 21.498 15 21.5Z" fill="var(--fill-0, #F4E2E3)"/>
<path id="Vector_2" d="M17 30H13C12.6022 30 12.2206 29.842 11.9393 29.5607C11.658 29.2794 11.5 28.8978 11.5 28.5V25.7835C11.5006 25.6836 11.4707 25.5859 11.4143 25.5035C11.358 25.421 11.2778 25.3577 11.1845 25.322C10.925 25.226 10.661 25.1165 10.4015 24.997C10.3102 24.9564 10.2087 24.9445 10.1105 24.9629C10.0122 24.9813 9.92193 25.0291 9.8515 25.1L7.9285 27.019C7.79003 27.1596 7.62491 27.2711 7.44282 27.3471C7.26073 27.423 7.06531 27.4619 6.868 27.4615C6.67008 27.4617 6.4741 27.4225 6.29156 27.346C6.10903 27.2695 5.9436 27.1573 5.805 27.016L2.9815 24.1935C2.84077 24.0547 2.72903 23.8893 2.65275 23.707C2.57648 23.5246 2.53721 23.3289 2.53721 23.1313C2.53721 22.9336 2.57648 22.7379 2.65275 22.5555C2.72903 22.3732 2.84077 22.2078 2.9815 22.069L4.9 20.15C4.97119 20.0798 5.01921 19.9894 5.03762 19.8911C5.05603 19.7928 5.04395 19.6912 5.003 19.6C4.88567 19.3433 4.77733 19.0822 4.678 18.8165C4.64275 18.7232 4.57976 18.643 4.49752 18.5865C4.41528 18.5301 4.31773 18.5003 4.218 18.501H1.5C1.10218 18.501 0.720644 18.343 0.43934 18.0617C0.158035 17.7804 0 17.3988 0 17.001V13C0 12.6022 0.158035 12.2206 0.43934 11.9393C0.720644 11.658 1.10218 11.5 1.5 11.5H4.2165C4.31637 11.5008 4.41412 11.4711 4.49661 11.4148C4.5791 11.3585 4.6424 11.2783 4.678 11.185C4.778 10.9183 4.88633 10.6572 5.003 10.4015C5.04388 10.3102 5.05592 10.2087 5.03752 10.1104C5.01911 10.0121 4.97113 9.92178 4.9 9.8515L2.981 7.928C2.84041 7.78917 2.72878 7.62381 2.65259 7.44151C2.5764 7.2592 2.53717 7.06358 2.53717 6.866C2.53717 6.66842 2.5764 6.4728 2.65259 6.29049C2.72878 6.10819 2.84041 5.94283 2.981 5.804L5.804 2.9815C5.94243 2.84085 6.10753 2.72923 6.28962 2.65317C6.47172 2.5771 6.66716 2.53812 6.8645 2.5385C7.06247 2.53809 7.25853 2.57725 7.44116 2.65366C7.62379 2.73008 7.78931 2.84222 7.928 2.9835L9.85 4.9C9.92024 4.97119 10.0106 5.01921 10.1089 5.03762C10.2072 5.05603 10.3088 5.04395 10.4 5.003C10.659 4.8835 10.9245 4.7735 11.188 4.6765C11.2801 4.64164 11.3593 4.57948 11.4151 4.49834C11.4708 4.4172 11.5005 4.32095 11.5 4.2225V1.5C11.5 1.10218 11.658 0.720644 11.9393 0.43934C12.2206 0.158035 12.6022 0 13 0H17C17.3978 0 17.7794 0.158035 18.0607 0.43934C18.342 0.720644 18.5 1.10218 18.5 1.5V4.2165C18.4995 4.3165 18.5294 4.41428 18.5859 4.49682C18.6424 4.57935 18.7226 4.64273 18.816 4.6785C19.0775 4.775 19.3415 4.8845 19.5985 5.003C19.6898 5.04381 19.7913 5.05581 19.8896 5.03741C19.9879 5.01901 20.0782 4.97107 20.1485 4.9L22.0715 2.981C22.2099 2.84035 22.375 2.72877 22.5571 2.65278C22.7392 2.57679 22.9347 2.53794 23.132 2.5385C23.3299 2.53825 23.5259 2.57753 23.7084 2.65403C23.891 2.73053 24.0564 2.84272 24.195 2.984L27.0175 5.8065C27.1581 5.94547 27.2696 6.11098 27.3457 6.29343C27.4217 6.47587 27.4608 6.67161 27.4605 6.86927C27.4603 7.06694 27.4208 7.26258 27.3443 7.44485C27.2678 7.62711 27.1559 7.79236 27.015 7.931L25.1 9.85C25.0288 9.92024 24.9808 10.0106 24.9624 10.1089C24.944 10.2072 24.956 10.3088 24.997 10.4C25.1175 10.663 25.228 10.9285 25.324 11.1905C25.3588 11.2815 25.4205 11.3598 25.5009 11.4149C25.5813 11.47 25.6765 11.4993 25.774 11.499H28.5C28.8978 11.499 29.2794 11.657 29.5607 11.9383C29.842 12.2196 30 12.6012 30 12.999V16.999C30 17.3968 29.842 17.7784 29.5607 18.0597C29.2794 18.341 28.8978 18.499 28.5 18.499H25.7835C25.6836 18.4982 25.5859 18.5279 25.5034 18.5842C25.4209 18.6405 25.3576 18.7207 25.322 18.814C25.222 19.0807 25.1137 19.3418 24.997 19.5975C24.9561 19.6888 24.9441 19.7903 24.9625 19.8886C24.9809 19.9869 25.0289 20.0772 25.1 20.1475L27.019 22.071C27.1596 22.2098 27.2712 22.3752 27.3474 22.5575C27.4236 22.7398 27.4628 22.9354 27.4628 23.133C27.4628 23.3306 27.4236 23.5262 27.3474 23.7085C27.2712 23.8908 27.1596 24.0562 27.019 24.195L24.196 27.0175C24.0576 27.1581 23.8925 27.2698 23.7104 27.3458C23.5283 27.4219 23.3328 27.4609 23.1355 27.4605C22.9375 27.4609 22.7415 27.4218 22.5588 27.3453C22.3762 27.2689 22.2107 27.1568 22.072 27.0155L20.15 25.1C20.0796 25.0291 19.9893 24.9813 19.891 24.9629C19.7928 24.9445 19.6913 24.9564 19.6 24.997C19.344 25.115 19.0815 25.224 18.815 25.3225C18.722 25.3574 18.642 25.42 18.5857 25.5018C18.5294 25.5836 18.4995 25.6807 18.5 25.78V28.5C18.5 28.8978 18.342 29.2794 18.0607 29.5607C17.7794 29.842 17.3978 30 17 30ZM10.2045 23.9545C10.4171 23.9543 10.6273 24.0002 10.8205 24.089C11.0522 24.196 11.2888 24.2942 11.5305 24.3835C11.8155 24.4903 12.061 24.6817 12.2342 24.9318C12.4075 25.182 12.5002 25.4792 12.5 25.7835V28.5C12.5 28.6326 12.5527 28.7598 12.6464 28.8536C12.7402 28.9473 12.8674 29 13 29H17C17.1326 29 17.2598 28.9473 17.3536 28.8536C17.4473 28.7598 17.5 28.6326 17.5 28.5V25.78C17.4998 25.4765 17.5924 25.1802 17.7653 24.9308C17.9382 24.6814 18.1832 24.4908 18.4675 24.3845C18.709 24.295 18.947 24.1965 19.1795 24.089C19.4565 23.9632 19.7652 23.9249 20.0645 23.979C20.3639 24.0331 20.6396 24.1772 20.855 24.392L22.778 26.311C22.824 26.3585 22.8791 26.3963 22.94 26.422C23.0009 26.4478 23.0664 26.4611 23.1325 26.461C23.1979 26.4605 23.2625 26.4469 23.3226 26.4212C23.3827 26.3954 23.437 26.358 23.4825 26.311L26.31 23.4835C26.3573 23.4378 26.3949 23.3831 26.4207 23.3226C26.4464 23.2621 26.4598 23.197 26.4601 23.1313C26.4603 23.0655 26.4474 23.0004 26.422 22.9397C26.3967 22.879 26.3594 22.8241 26.3125 22.778L24.392 20.855C24.177 20.6398 24.0329 20.3642 23.9787 20.0649C23.9246 19.7656 23.9631 19.4569 24.089 19.18C24.196 18.9467 24.2942 18.7097 24.3835 18.469C24.4904 18.1841 24.6818 17.9387 24.932 17.7655C25.1821 17.5924 25.4792 17.4997 25.7835 17.5H28.5C28.6326 17.5 28.7598 17.4473 28.8536 17.3536C28.9473 17.2598 29 17.1326 29 17V13C29 12.8674 28.9473 12.7402 28.8536 12.6464C28.7598 12.5527 28.6326 12.5 28.5 12.5H25.7755C25.4733 12.5002 25.1783 12.408 24.9299 12.2359C24.6815 12.0638 24.4915 11.82 24.3855 11.537C24.2958 11.293 24.197 11.0538 24.089 10.8195C23.9631 10.5427 23.9247 10.2341 23.9788 9.93489C24.0329 9.63568 24.1771 9.36011 24.392 9.145L26.311 7.2215C26.3584 7.17581 26.3961 7.12107 26.422 7.06052C26.4479 6.99998 26.4613 6.93486 26.4615 6.86903C26.4618 6.80319 26.4488 6.73798 26.4234 6.67726C26.3979 6.61653 26.3606 6.56153 26.3135 6.5155L23.4865 3.6885C23.4405 3.64121 23.3856 3.60358 23.3249 3.57782C23.2642 3.55207 23.1989 3.5387 23.133 3.5385C23.0676 3.5388 23.0029 3.55223 22.9428 3.57799C22.8827 3.60376 22.8283 3.64134 22.783 3.6885L20.855 5.608C20.6398 5.82305 20.364 5.96729 20.0646 6.02144C19.7652 6.07558 19.4564 6.03705 19.1795 5.911C18.9482 5.804 18.7115 5.70583 18.4695 5.6165C18.1846 5.5096 17.9391 5.31827 17.7658 5.06809C17.5926 4.81791 17.4998 4.52081 17.5 4.2165V1.5C17.5 1.36739 17.4473 1.24021 17.3536 1.14645C17.2598 1.05268 17.1326 1 17 1H13C12.8674 1 12.7402 1.05268 12.6464 1.14645C12.5527 1.24021 12.5 1.36739 12.5 1.5V4.224C12.5002 4.52679 12.4079 4.82243 12.2355 5.0713C12.063 5.32018 11.8186 5.5104 11.535 5.6165C11.292 5.70583 11.0538 5.8045 10.8205 5.9125C10.5436 6.03848 10.2348 6.07697 9.9354 6.02283C9.63601 5.96869 9.36027 5.82449 9.145 5.6095L7.222 3.689C7.17599 3.6415 7.1209 3.60374 7.05999 3.57797C6.99909 3.5522 6.93363 3.53895 6.8675 3.539C6.8023 3.53919 6.73779 3.55233 6.67771 3.57765C6.61763 3.60297 6.56317 3.63997 6.5175 3.6865L3.6885 6.5135C3.64124 6.55922 3.60362 6.61394 3.57784 6.67443C3.55207 6.73493 3.53867 6.79997 3.53844 6.86572C3.53821 6.93148 3.55114 6.99661 3.57649 7.05729C3.60183 7.11796 3.63907 7.17295 3.686 7.219L5.608 9.145C5.82295 9.36019 5.96713 9.63585 6.02127 9.93515C6.07541 10.2344 6.03694 10.5431 5.911 10.82C5.804 11.0533 5.70583 11.2903 5.6165 11.531C5.50958 11.8159 5.31823 12.0613 5.06805 12.2345C4.81786 12.4076 4.52077 12.5003 4.2165 12.5H1.5C1.36739 12.5 1.24021 12.5527 1.14645 12.6464C1.05268 12.7402 1 12.8674 1 13V17C1 17.1326 1.05268 17.2598 1.14645 17.3536C1.24021 17.4473 1.36739 17.5 1.5 17.5H4.2195C4.52388 17.4996 4.82111 17.5922 5.07134 17.7655C5.32157 17.9388 5.51284 18.1844 5.6195 18.4695C5.7085 18.7108 5.80667 18.9478 5.914 19.1805C6.0399 19.4573 6.07835 19.7659 6.0242 20.0651C5.97006 20.3643 5.82591 20.6399 5.611 20.855L3.689 22.7785C3.6416 22.8242 3.60386 22.8789 3.578 22.9395C3.55214 23 3.5387 23.0651 3.53847 23.131C3.53823 23.1968 3.55121 23.262 3.57664 23.3227C3.60207 23.3835 3.63943 23.4385 3.6865 23.4845L6.5135 26.3115C6.55946 26.3588 6.61441 26.3964 6.67511 26.4222C6.73582 26.4479 6.80106 26.4613 6.867 26.4615C6.93241 26.4612 6.9971 26.4478 7.05722 26.422C7.11734 26.3962 7.17167 26.3587 7.217 26.3115L9.143 24.39C9.42514 24.1099 9.80694 23.9533 10.2045 23.9545Z" fill="var(--fill-0, #931115)"/>
<path id="Vector_3" d="M15 22C13.6155 22 12.2622 21.5895 11.111 20.8203C9.95986 20.0511 9.06266 18.9579 8.53284 17.6788C8.00303 16.3997 7.86441 14.9922 8.1345 13.6344C8.4046 12.2765 9.07129 11.0292 10.0503 10.0503C11.0292 9.07129 12.2765 8.4046 13.6344 8.1345C14.9922 7.86441 16.3997 8.00303 17.6788 8.53284C18.9579 9.06266 20.0511 9.95986 20.8203 11.111C21.5895 12.2622 22 13.6155 22 15C21.998 16.8559 21.2599 18.6352 19.9476 19.9476C18.6352 21.2599 16.8559 21.998 15 22ZM15 9C13.8133 9 12.6533 9.35189 11.6666 10.0112C10.6799 10.6705 9.91085 11.6075 9.45672 12.7039C9.0026 13.8003 8.88378 15.0067 9.11529 16.1705C9.3468 17.3344 9.91824 18.4035 10.7574 19.2426C11.5965 20.0818 12.6656 20.6532 13.8295 20.8847C14.9933 21.1162 16.1997 20.9974 17.2961 20.5433C18.3925 20.0892 19.3295 19.3201 19.9888 18.3334C20.6481 17.3467 21 16.1867 21 15C20.9983 13.4092 20.3656 11.8841 19.2407 10.7593C18.1159 9.63441 16.5908 9.00172 15 9Z" fill="var(--fill-0, #931115)"/>
</g>
</svg>
